<svg id="Layer_6" data-name="Layer 6" xmlns="http://www.w3.org/2000/svg" viewBox="0 0 102.86 102.86"><defs><style>.cls-1{fill:#ec5a25;opacity:0;}.cls-2{fill:#fdffe2;}</style></defs><title>ballight03</title><circle class="cls-1" cx="987.81" cy="601.41" r="51.42" transform="translate(-1102.44 129.24) rotate(-35.19)"/><path class="cls-2" d="M988.46,560.39l-0.34,0-0.45,0a37.49,37.49,0,0,0-38.27,24.29c-0.33.89-.63,1.82-0.92,2.82h0a6.3,6.3,0,0,0-.32,2.45,3.39,3.39,0,0,0,1.11,1.93,3.69,3.69,0,0,0,1.82.92,3.62,3.62,0,0,0,.92,0,3.68,3.68,0,0,0,3.39-3,30.11,30.11,0,0,1,31.75-22.23h0.27A3.64,3.64,0,0,0,988.46,560.39Zm-0.79.32h0Z" transform="translate(-936.38 -549.98)"/></svg>